<svg width="40" height="44" viewBox="0 0 40 44" fill="none" xmlns="http://www.w3.org/2000/svg">
<path fill-rule="evenodd" clip-rule="evenodd" d="M33.6421 42.7085C33.6421 42.7085 40 43.1514 40 36.0659C40 28.9804 30.5516 23.9323 28.6973 23.9323H20.2772H11.3027C9.44842 23.9323 0 28.9804 0 36.0659C0 43.1514 6.35746 42.7085 6.35746 42.7085H33.6421Z" fill="#FF4E42"/>
<path fill-rule="evenodd" clip-rule="evenodd" d="M32.9014 22.0865C32.9653 21.5646 33.002 21.0336 33.002 20.4949C33.002 13.2521 27.079 7.37994 19.7724 7.37994C12.4662 7.37994 6.54318 13.2521 6.54318 20.4949C6.54318 21.0714 6.58452 21.6388 6.65756 22.1953C5.93636 22.5969 4.79025 23.4877 5.14212 24.9781C5.64558 27.1084 8.28141 27.1362 8.28141 27.1362C8.28141 27.1362 8.29289 27.1002 8.31035 27.0396C10.5957 30.9655 14.8714 33.6094 19.7724 33.6094C24.7817 33.6094 29.1401 30.8489 31.386 26.7787C31.4439 27.0018 31.4852 27.1362 31.4852 27.1362C31.4852 27.1362 34.1215 27.1084 34.6249 24.9781C35.0136 23.3319 33.5767 22.4184 32.9014 22.0865Z" fill="#FFC024"/>
<path fill-rule="evenodd" clip-rule="evenodd" d="M6.58305 34.6177C3.28943 33.7631 1.57085 34.7363 1.49907 34.7781C1.28004 34.9066 1.20504 35.1908 1.32836 35.4158C1.45167 35.6417 1.73189 35.7212 1.95276 35.597C1.96794 35.588 3.45876 34.7763 6.35666 35.5301C9.39168 36.3179 15.2947 40.4877 15.3541 40.5296C15.4337 40.5865 15.5252 40.6134 15.6154 40.6134C15.7613 40.6134 15.9048 40.5428 15.9941 40.411C16.139 40.1974 16.0866 39.9042 15.8777 39.756C15.6306 39.5809 9.77865 35.4478 6.58305 34.6177Z" fill="#1820EF"/>
<path fill-rule="evenodd" clip-rule="evenodd" d="M38.2664 34.7785C38.1946 34.7366 36.4762 33.7626 33.1829 34.6181C29.9877 35.4481 24.1363 39.581 23.8893 39.756C23.6804 39.9047 23.6284 40.1979 23.7729 40.411C23.8621 40.5428 24.0057 40.6134 24.1515 40.6134C24.2421 40.6134 24.3337 40.5865 24.4133 40.5301C24.4726 40.4877 30.3741 36.3186 33.4093 35.5305C36.3087 34.7776 37.7976 35.5888 37.8091 35.5954C38.0308 35.7248 38.3115 35.6462 38.4371 35.4208C38.5636 35.1954 38.4868 34.9075 38.2664 34.7785Z" fill="#1820EF"/>
<path fill-rule="evenodd" clip-rule="evenodd" d="M23.596 16.4574C23.863 17.4204 24.1299 18.3834 24.3964 19.3463C24.5019 19.7281 24.1412 20.044 23.7613 19.9621C20.9083 19.3459 18.3536 17.8602 16.4221 15.7649C16.3188 17.0014 16.518 18.2348 16.9998 19.4059C17.1783 19.8398 16.5992 20.1552 16.2412 19.971C13.5424 18.5828 11.2768 16.5151 9.6693 13.9972C9.3187 13.4472 10.2122 12.9449 10.5614 13.4917C11.8431 15.4993 13.5686 17.1799 15.6066 18.4449C15.2876 17.1372 15.284 15.7774 15.5841 14.4483C15.6883 13.986 16.2853 14.0145 16.5281 14.3287C18.1815 16.4715 20.5357 18.0137 23.1675 18.7701C22.8403 17.5906 22.5135 16.4101 22.1872 15.2306C22.0482 14.7287 22.6741 14.4203 23.05 14.7433C25.1325 16.5378 27.6073 17.8201 30.2708 18.5454C29.4641 17.7405 28.7858 16.8212 28.2631 15.8005C28.0359 15.3578 28.4999 14.8666 28.9694 15.1153C30.805 16.092 32.8163 16.7007 34.9016 16.8938C35.5583 16.9543 35.5624 17.9559 34.9016 17.8949C33.2179 17.7392 31.5874 17.3463 30.0409 16.7216C30.699 17.6141 31.4984 18.4012 32.4336 19.0446C32.9251 19.3832 32.6144 20.0516 32.0353 19.9599C28.9643 19.4722 26.0732 18.2517 23.5942 16.451L23.596 16.4574ZM27.4358 25.0603C27.415 24.9896 26.8957 23.3057 25.3822 23.3057C23.8585 23.3057 23.3466 24.7395 23.3253 24.8005C23.2453 25.0316 22.9838 25.1584 22.7422 25.0833C22.4996 25.0086 22.3663 24.7612 22.4441 24.5296C22.6885 23.8006 23.6169 22.4219 25.3822 22.4219C27.602 22.4219 28.299 24.725 28.3277 24.823C28.3962 25.0581 28.2518 25.302 28.006 25.3674C27.9644 25.378 27.9222 25.3833 27.8811 25.3833C27.6788 25.3833 27.4932 25.2556 27.4358 25.0603ZM14.3827 22.4219C12.6175 22.4219 11.689 23.8006 11.4446 24.5296C11.3669 24.7612 11.5002 25.0086 11.7427 25.0833C11.9843 25.1584 12.2458 25.0316 12.3259 24.8005C12.3472 24.7395 12.8591 23.3057 14.3827 23.3057C15.8962 23.3057 16.4155 24.9896 16.4363 25.0603C16.4937 25.2556 16.6793 25.3833 16.8816 25.3833C16.9228 25.3833 16.9649 25.378 17.0066 25.3674C17.2523 25.302 17.3967 25.0581 17.3282 24.823C17.2995 24.725 16.6025 22.4219 14.3827 22.4219ZM19.934 29.346C20.2196 29.5089 20.7853 29.7296 21.2336 29.2712C21.4088 29.0918 21.6921 29.0918 21.8674 29.2712C22.0427 29.4506 22.0427 29.7406 21.8674 29.92C21.4779 30.3187 21.0372 30.46 20.619 30.46C20.0434 30.46 19.5109 30.1925 19.2137 29.9604L19.0375 29.8227V24.573C19.0375 24.3193 19.2379 24.1142 19.4858 24.1142C19.7332 24.1142 19.934 24.3193 19.934 24.573V29.346Z" fill="#1820EF"/>
<path fill-rule="evenodd" clip-rule="evenodd" d="M9.95014 3.67126C10.7653 4.47815 11.7338 5.29904 12.6436 6.13392C13.2163 6.65951 14.1391 6.12986 13.9307 5.39295L12.9197 1.82268C12.7779 1.32192 12.1661 1.10745 11.7264 1.40501L10.0644 2.52978C9.67081 2.79573 9.61485 3.33983 9.95014 3.67126Z" fill="#FF4E42"/>
<path fill-rule="evenodd" clip-rule="evenodd" d="M28.9706 3.67126C28.1559 4.47815 27.1873 5.29904 26.2774 6.13392C25.7043 6.65951 24.7818 6.12986 24.9903 5.39295L26.0014 1.82268C26.1431 1.32192 26.755 1.10745 27.1947 1.40501L28.8568 2.52978C29.2499 2.79573 29.3064 3.33983 28.9706 3.67126Z" fill="#FF4E42"/>
<path fill-rule="evenodd" clip-rule="evenodd" d="M18.2087 1.01869C18.4454 2.12614 18.798 3.32572 19.0963 4.5067C19.2841 5.24924 20.2973 5.27329 20.511 4.53756L21.5444 0.971938C21.6899 0.471316 21.31 -0.0265827 20.8032 0.00110357L18.8901 0.103225C18.4375 0.127734 18.1109 0.562544 18.2087 1.01869Z" fill="#FF4E42"/>
<path fill-rule="evenodd" clip-rule="evenodd" d="M25.695 39.3932C27.8684 39.7632 28.3423 42.0227 28.3423 42.0227C28.439 42.3504 25.5572 42.9869 25.5572 42.9869C24.1508 43.3881 22.2659 43.6734 21.11 43.5428C19.9551 43.4126 20.1809 42.0896 20.9357 41.4696C21.013 41.4062 21.1015 41.3302 21.2004 41.2452C22.0693 40.499 23.7435 39.0611 25.695 39.3932ZM14.072 39.3933C11.8987 39.7632 11.4248 42.0228 11.4248 42.0228C11.3281 42.3504 14.2099 42.9869 14.2099 42.9869C15.6163 43.3881 17.5012 43.6734 18.6571 43.5428C19.8119 43.4126 19.5862 42.0896 18.8314 41.4696C18.7541 41.4062 18.6656 41.3302 18.5666 41.2452C17.6978 40.499 16.0236 39.0611 14.072 39.3933Z" fill="#FFC024"/>
</svg>
