<svg width="125" height="16" viewBox="0 0 125 16" fill="none" xmlns="http://www.w3.org/2000/svg">
<path fill-rule="evenodd" clip-rule="evenodd" d="M96.7479 9.72737C96.7479 8.68737 95.9137 7.84442 94.8846 7.84442C93.8554 7.84442 93.0212 8.68737 93.0212 9.72737V11.9758C92.3112 12.3059 91.5521 12.4705 90.7433 12.4705C89.92 12.4705 89.1888 12.2878 88.5496 11.9223C87.9112 11.5564 87.4137 11.0469 87.0596 10.3943C86.7038 9.74211 86.5271 8.99895 86.5271 8.16695C86.5271 6.86211 86.9171 5.81747 87.6979 5.036C88.4788 4.25411 89.5083 3.86295 90.7858 3.86295C91.7237 3.86295 92.5733 4.11221 93.3346 4.61074C94.0408 5.07347 94.9558 5.03811 95.58 4.468C96.4788 3.64653 96.3404 2.17874 95.3021 1.54758C94.9925 1.35979 94.6654 1.19179 94.3204 1.044C93.2125 0.57158 91.9638 0.334106 90.5725 0.334106C88.9821 0.334106 87.5554 0.668001 86.2921 1.33537C85.0287 2.00147 84.0421 2.93116 83.3329 4.1219C82.6225 5.31221 82.2683 6.66 82.2683 8.16695C82.2683 9.67347 82.6225 11.0217 83.3329 12.2124C84.0421 13.4036 85.0212 14.3324 86.2712 14.9985C87.52 15.6659 88.9258 16.0002 90.4875 16.0002C91.5946 16.0002 92.7025 15.8352 93.8096 15.5051C94.9171 15.1754 95.8967 14.7013 96.7479 14.0844V9.72737ZM6.94857 4.00839C6.48323 4.06847 6.05154 4.17055 5.65305 4.31426C4.96949 4.56202 4.41445 4.93345 3.98836 5.42818C3.98836 4.70808 3.34663 4.12422 2.55569 4.12422H1.43224C0.641294 4.12422 0 4.70808 0 5.42818V13.0937C0 14.1468 0.937143 15 2.09337 15C3.25003 15 4.1876 14.1468 4.1876 13.0937V10.0032C4.1876 9.09389 4.43989 8.41893 4.94706 7.97682C5.4538 7.5351 6.15547 7.31443 7.05208 7.31443H7.05984C7.57693 7.31483 8 6.93004 8 6.45887V4.84079C8 4.33114 7.50275 3.93693 6.94857 4.00839ZM18.1223 12.0781C17.973 12.5218 17.7278 12.8576 17.3879 13.0858C17.0469 13.3147 16.6535 13.4288 16.2039 13.4288C15.7546 13.4288 15.4004 13.3214 15.1428 13.1076C14.8844 12.8933 14.7551 12.6073 14.7551 12.2496C14.7551 11.4651 15.3189 11.0714 16.4491 11.0714H18.1223V12.0781ZM22 9.35761C22 7.54323 21.5176 6.19638 20.5508 5.31749C19.5852 4.43861 18.1842 4 16.3465 4C15.4627 4 14.5817 4.11741 13.7036 4.35265C13.4408 4.42351 13.19 4.50276 12.9516 4.59082C12.1206 4.8965 11.722 5.88483 12.113 6.71298C12.4376 7.39982 13.2028 7.7424 13.8869 7.47404C13.9767 7.43882 14.0686 7.40569 14.1632 7.37466C14.7071 7.19687 15.2443 7.10672 15.7754 7.10672C17.2721 7.10672 18.0545 7.72102 18.1223 8.94961H15.918C14.2447 8.94961 13.0059 9.25404 12.204 9.86079C11.4005 10.4675 11 11.3213 11 12.4216C11 13.1076 11.1593 13.7177 11.4792 14.2535C11.7991 14.789 12.2715 15.215 12.8973 15.5291C13.5231 15.8432 14.2647 16 15.1229 16C16.741 16 17.8292 15.436 18.3875 14.3068C18.3875 15.1358 19.0269 15.8075 19.8164 15.8075H20.5711C21.3598 15.8075 22 15.1358 22 14.3068V9.35761ZM44.7778 5.30578C45.5929 6.17771 46 7.49116 46 9.24782V13.931C46 15.0735 45.1266 16 44.0491 16C42.9711 16 42.0978 15.0735 42.0978 13.931V9.92329C42.0978 9.0961 41.9502 8.4854 41.656 8.09418C41.3614 7.70168 40.9475 7.50607 40.4129 7.50607C39.8241 7.50607 39.3514 7.72427 38.9953 8.15896C38.6396 8.59493 38.462 9.25549 38.462 10.1415V13.931C38.462 15.0735 37.5882 16 36.5107 16C35.4331 16 34.5593 15.0735 34.5593 13.931V9.92329C34.5593 8.31238 33.9978 7.50607 32.8745 7.50607C32.2716 7.50607 31.7929 7.72427 31.4372 8.15896C31.0811 8.59493 30.9027 9.25549 30.9027 10.1415V13.931C30.9027 15.0735 30.0289 16 28.9513 16C27.8734 16 27 15.0735 27 13.931V4.57874C27 4.36693 27.162 4.19561 27.3613 4.19561H30.3564C30.5562 4.19561 30.7182 4.36693 30.7182 4.57874C30.7182 4.89495 31.055 5.07096 31.2949 4.88302C31.567 4.66951 31.864 4.49478 32.1864 4.35798C32.7551 4.1189 33.3749 4 34.0457 4C34.8258 4 35.5243 4.15172 36.1413 4.45728C36.757 4.76113 37.2562 5.22608 37.6404 5.85042C38.0777 5.25591 38.6324 4.79864 39.3044 4.47859C39.9744 4.15939 40.7075 4 41.5021 4C42.871 4 43.9635 4.43469 44.7778 5.30578ZM54.5897 7.43852C54.5937 7.43516 54.5977 7.43139 54.6017 7.42803C55.0034 7.07118 55.5026 6.89213 56.1016 6.89213C56.7007 6.89213 57.201 7.07118 57.6024 7.42803C57.6064 7.43181 57.6108 7.43558 57.6152 7.43936C58.1603 7.93417 57.7813 8.88563 57.0605 8.88563H55.1432C54.4228 8.88563 54.0438 7.93249 54.5897 7.43852ZM53.8972 11.0284H61.0028C61.5384 11.0284 61.9936 10.5843 62 10.022V10.0212C62 8.77912 61.738 7.70311 61.2141 6.7961C60.6905 5.88867 59.9793 5.19593 59.0812 4.7179C58.1834 4.2386 57.1839 4 56.0817 4C54.9248 4 53.8841 4.25621 52.9584 4.77115C52.0335 5.28483 51.3091 5.99644 50.7847 6.90387C50.2608 7.81088 50 8.83531 50 9.97799C50 11.1353 50.2676 12.1715 50.8059 13.0861C51.343 14.0006 52.1014 14.7152 53.081 15.2293C54.061 15.7438 55.1967 16 56.4894 16C57.705 16 58.7489 15.7836 59.6207 15.3496C60.5392 14.8925 60.7397 13.6077 60.0352 12.8382C59.5696 12.33 58.8495 12.2277 58.2465 12.5388C58.1611 12.5829 58.0752 12.6223 57.9897 12.6571C57.6024 12.8148 57.1427 12.8936 56.6116 12.8936C55.9044 12.8936 55.3161 12.7322 54.8469 12.4109C54.3773 12.0897 54.061 11.6285 53.8972 11.0284ZM76.7206 5.30578C77.5735 6.17771 78 7.49116 78 9.24782V13.931C78 15.0735 77.1157 16 76.0243 16C74.933 16 74.0491 15.0735 74.0491 13.931V9.92329C74.0491 8.31238 73.4314 7.50607 72.1976 7.50607C71.5184 7.50607 70.9739 7.73791 70.5646 8.20286C70.1564 8.66738 69.9513 9.36501 69.9513 10.2936V13.931C69.9513 15.0735 69.0666 16 67.9757 16C66.8847 16 66 15.0735 66 13.931V4.19561H69.7645V5.48008C70.2081 5.00149 70.7342 4.63456 71.3446 4.38057C71.955 4.12615 72.62 4 73.341 4C74.7413 4 75.8685 4.43469 76.7206 5.30578ZM110.974 12.1056C111.563 11.7625 112.029 11.2787 112.373 10.6526C112.715 10.0281 112.887 9.31094 112.887 8.5002C112.887 7.69027 112.715 6.97186 112.373 6.34698C112.029 5.7225 111.563 5.23751 110.974 4.89443C110.384 4.55135 109.726 4.3792 109 4.3792C108.273 4.3792 107.615 4.55135 107.026 4.89443C106.437 5.23751 105.969 5.7225 105.627 6.34698C105.285 6.97186 105.113 7.69027 105.113 8.5002C105.113 9.31094 105.285 10.0281 105.627 10.6526C105.969 11.2787 106.437 11.7625 107.026 12.1056C107.615 12.4487 108.273 12.6208 109 12.6208C109.726 12.6208 110.384 12.4487 110.974 12.1056ZM104.897 15.0312C103.684 14.3862 102.731 13.4928 102.038 12.3531C101.346 11.2134 101 9.92856 101 8.5002C101 7.07144 101.346 5.78781 102.038 4.6469C102.731 3.50679 103.684 2.61462 104.897 1.96877C106.11 1.32292 107.478 1 109 1C110.521 1 111.889 1.32292 113.103 1.96877C114.316 2.61462 115.269 3.50679 115.961 4.6469C116.653 5.78781 117 7.07144 117 8.5002C117 9.92856 116.653 11.2134 115.961 12.3531C115.269 13.4928 114.316 14.3862 113.103 15.0312C111.889 15.6771 110.521 16 109 16C107.478 16 106.11 15.6771 104.897 15.0312ZM124.694 1.20631H120.252L120.98 10.4269H123.947L124.694 1.20631ZM120.233 13.7167C120.232 14.2219 120.401 14.7237 120.716 15.104C121.154 15.6319 121.739 15.8958 122.473 15.8958C123.142 15.8958 123.69 15.6675 124.117 15.211C124.496 14.8069 124.703 14.2417 124.694 13.6737C124.684 13.0737 124.477 12.5783 124.075 12.1871C123.662 11.7874 123.129 11.5863 122.473 11.5863C121.818 11.5863 121.281 11.7874 120.862 12.1871C120.443 12.5877 120.234 13.0973 120.233 13.7167Z" fill="#FFC024"/>
</svg>
