<svg width="40" height="40" viewBox="0 0 40 40" fill="none" xmlns="http://www.w3.org/2000/svg">
<mask id="mask0_231_2771" style="mask-type:luminance" maskUnits="userSpaceOnUse" x="6" y="0" width="27" height="40">
<path fill-rule="evenodd" clip-rule="evenodd" d="M6.15384 0.780151H32.2808V39.6154H6.15384V0.780151Z" fill="white"/>
</mask>
<g mask="url(#mask0_231_2771)">
<path fill-rule="evenodd" clip-rule="evenodd" d="M15.0543 2.62832C15.0543 2.62832 3.94647 13.0754 6.54877 25.9097C9.15108 38.744 21.8804 41.9977 27.5237 38.0207C33.1671 34.0438 33.7479 26.2511 29.4874 19.6628C25.2264 13.0754 29.4946 11.6289 28.8129 6.38696C28.1316 1.14465 18.2459 -1.09944 15.0543 2.62832Z" fill="#FFC024"/>
</g>
<mask id="mask1_231_2771" style="mask-type:luminance" maskUnits="userSpaceOnUse" x="8" y="0" width="26" height="40">
<path fill-rule="evenodd" clip-rule="evenodd" d="M8.12424 0.270813H33.1891V39.5833H8.12424V0.270813Z" fill="white"/>
</mask>
<g mask="url(#mask1_231_2771)">
<path fill-rule="evenodd" clip-rule="evenodd" d="M16.6627 2.14155C16.6627 2.14155 6.00662 12.7165 8.5032 25.709C10.9994 38.7011 23.2115 41.9949 28.6252 37.969C34.0389 33.9432 34.5969 26.0545 30.5091 19.3857C26.4209 12.7165 30.5159 11.2528 29.8622 5.94613C29.2082 0.639881 19.7245 -1.6322 16.6627 2.14155Z" fill="#FF4E42"/>
</g>
<path fill-rule="evenodd" clip-rule="evenodd" d="M18.3172 14.6225C20.5956 14.6225 22.4026 14.9059 24.3659 15.5405C24.3914 15.5505 25.3245 15.9313 25.9001 15.6073C26.1436 15.4708 26.2885 15.2253 26.3438 14.8575C26.444 14.1891 26.6107 13.5858 26.772 13.0022C27.1017 11.809 27.4126 10.6818 27.2098 9.01346C26.9677 7.03079 25.0358 5.80211 23.308 5.31323C21.4817 4.79679 19.1308 4.90868 17.9963 6.32356C17.9623 6.35947 16.0568 8.29036 14.3881 11.3464C14.3382 11.5664 13.9976 13.2138 14.7371 14.1035C15.0907 14.5285 15.6588 14.7206 16.41 14.6801C17.0863 14.6421 17.7181 14.6225 18.3172 14.6225ZM25.3228 16.1538C24.7618 16.1538 24.2511 15.9447 24.2201 15.9313C21.7791 15.1435 19.6638 14.9151 16.4339 15.0967C15.5382 15.1489 14.8565 14.9026 14.4136 14.369C13.4902 13.2556 13.9666 11.303 13.9871 11.2207L14.0064 11.1719C15.7087 8.04613 17.6644 6.06597 17.6841 6.04635C18.9239 4.49871 21.4628 4.35718 23.4228 4.9116C25.2796 5.43723 27.359 6.77737 27.6255 8.96336C27.8387 10.7131 27.5019 11.9334 27.1759 13.1132C27.018 13.6848 26.8546 14.2759 26.7578 14.9193C26.6836 15.4161 26.4637 15.7706 26.1046 15.9718C25.8629 16.1075 25.5872 16.1538 25.3228 16.1538Z" fill="#1820EF"/>
<path fill-rule="evenodd" clip-rule="evenodd" d="M15.219 18.8801C14.9011 18.8801 14.5837 18.896 14.2672 18.9307C13.3664 19.0294 12.6836 19.4205 12.2381 20.0923C10.8336 22.2088 12.1112 26.441 12.1243 26.4837C13.3116 30.0898 15.9857 32.8324 19.4606 34.0049C22.2164 34.9335 25.0733 34.7323 26.9187 33.4808C30.8952 30.7824 31.4828 25.4016 28.3156 20.6867C28.3122 20.6867 27.3271 19.6268 26.348 19.6247H26.3454C25.9779 19.6247 25.6635 19.7723 25.384 20.0764C24.4976 21.0389 22.7766 20.5382 20.5982 19.9053C18.9303 19.4205 17.0719 18.8801 15.219 18.8801ZM22.8769 35C21.727 35 20.5156 34.8022 19.3253 34.4006C15.7235 33.1859 12.9521 30.3462 11.7221 26.6096C11.6652 26.4247 10.3729 22.144 11.8857 19.8631C12.4033 19.0817 13.1894 18.6283 14.2213 18.515C16.4679 18.2682 18.725 18.9245 20.7167 19.5038C22.6741 20.0727 24.3644 20.5646 25.0729 19.7941C25.4316 19.4042 25.8599 19.2064 26.3454 19.2064H26.3501C27.5223 19.2097 28.6022 20.3805 28.6473 20.4303C31.9671 25.369 31.3327 30.9924 27.1564 33.8259C26.0112 34.6026 24.5064 35 22.8769 35Z" fill="#1820EF"/>
</svg>
