<svg width="40" height="40" viewBox="0 0 40 40" fill="none" xmlns="http://www.w3.org/2000/svg">
<path fill-rule="evenodd" clip-rule="evenodd" d="M25.2865 1.30944H26.8785C27.2004 1.30944 27.4619 1.07829 27.4619 0.792904V0.651365C27.4619 0.365981 27.2004 0.134827 26.8785 0.134827H11.7373C11.4145 0.134827 11.1539 0.365981 11.1539 0.651365V0.792904C11.1539 1.07829 11.4145 1.30944 11.7373 1.30944H14.6562L15.39 2.95376C15.39 2.95376 20.1018 4.09631 24.5527 2.95376L25.2865 1.30944Z" fill="#FF4E42"/>
<path fill-rule="evenodd" clip-rule="evenodd" d="M8.5476 24.0488C8.84865 21.9938 9.36816 20.1072 9.99327 18.35C13.2261 19.0908 20.1189 20.071 29.8699 18.295C30.5039 20.0678 31.0303 21.9724 31.3347 24.0488C32.2434 30.2492 31.6298 34.3025 31.2215 36.0732C28.8654 34.9603 24.4262 34.3859 20.0236 34.3859C15.5251 34.3859 10.9914 34.9857 8.67747 36.1468C8.26911 34.4118 7.62781 30.3268 8.5476 24.0488ZM8.89863 37.198C8.89863 37.198 8.8785 37.1429 8.84638 37.0393C10.5981 36.1351 14.5486 35.2885 20.0417 35.2885C25.4308 35.2885 29.3351 36.1032 31.1351 36.988C30.5925 38.6618 25.8094 39.9706 19.9873 39.9706C14.4111 39.9706 9.7886 38.7699 8.93075 37.198H8.89863Z" fill="#1820EF"/>
<path fill-rule="evenodd" clip-rule="evenodd" d="M29.6154 17.4785C27.6077 12.0997 24.7766 7.89776 24.1467 3.84619C19.4893 5.28094 15.4851 3.84619 15.4851 3.84619C14.8535 7.90933 12.0082 12.1241 10 17.5247C13.2371 18.2563 20.0984 19.2263 29.6154 17.4785Z" fill="#FFC024"/>
<path fill-rule="evenodd" clip-rule="evenodd" d="M29.5866 27.3077C29.3717 27.3077 29.1904 27.1439 29.1751 26.9296C28.3099 15.0529 23.5863 8.40257 23.5384 8.33656C23.4058 8.1532 23.4492 7.89893 23.6347 7.76813C23.8202 7.63733 24.0788 7.68012 24.2106 7.86307C24.411 8.13934 29.1176 14.7677 29.9989 26.8709C30.0154 27.0954 29.844 27.2906 29.6163 27.3069C29.6064 27.3073 29.5965 27.3077 29.5866 27.3077Z" fill="#FAFAED"/>
</svg>
