<svg width="40" height="41" viewBox="0 0 40 41" fill="none" xmlns="http://www.w3.org/2000/svg">
<path fill-rule="evenodd" clip-rule="evenodd" d="M25.6544 33.7468C25.8971 33.7787 26.1344 33.8534 26.3521 33.9684L31.5098 36.6876C31.5728 36.7207 31.6171 36.7718 31.6524 36.8284C31.7674 36.5303 31.8101 36.2026 31.7567 35.871C31.288 32.9519 30.096 25.997 29.0744 20.037C28.5317 16.8705 28.0371 13.9849 27.7247 12.1345C27.5447 11.0707 26.4986 10.3972 25.4497 10.6495C24.6071 10.8522 23.8017 11.0007 23.0328 11.1076C23.0659 11.1576 23.0913 11.2134 23.0986 11.2772L25.6544 33.7468ZM14.6364 33.7971C14.4829 33.8374 14.3329 33.8936 14.1917 33.9682L9.03444 36.6874C8.9979 36.7067 8.97021 36.7344 8.9429 36.7624C8.8479 36.4797 8.81944 36.1724 8.87213 35.8644L12.9625 12.2567C13.1433 11.1951 14.1883 10.5032 15.2317 10.7697C15.8133 10.9182 16.5237 11.0617 17.3452 11.1667C17.3298 11.2013 17.3144 11.2359 17.3094 11.2751L14.6364 33.7971ZM9.33669 37.3914C9.35692 37.3871 9.3771 37.3829 9.39609 37.3727L14.5334 34.6638L13.9172 39.8565L9.86994 37.8327C9.65186 37.7238 9.46725 37.5723 9.31263 37.3969C9.32057 37.3948 9.32858 37.3931 9.33658 37.3914L9.33669 37.3914ZM24.8729 33.7278H15.4249L18.0787 11.3663C18.0837 11.3247 18.0772 11.2851 18.0691 11.2463C19.2937 11.3559 20.7314 11.3686 22.3533 11.1909C22.3337 11.2451 22.3226 11.3032 22.3295 11.3644L24.8729 33.7278ZM15.3328 34.5023L14.6667 40.1162C14.7467 40.1269 14.8278 40.1335 14.9086 40.1335H25.6013L24.9609 34.5023H15.3328ZM25.7467 34.56C25.8301 34.5847 25.9132 34.6127 25.9909 34.6535L31.1482 37.3727C31.1936 37.3966 31.2421 37.4077 31.2901 37.4127C31.1405 37.5762 30.9632 37.7174 30.7559 37.8212L26.5224 39.9377C26.4717 39.9631 26.4186 39.9843 26.3663 40.005L25.7467 34.56Z" fill="#1820EF"/>
<path fill-rule="evenodd" clip-rule="evenodd" d="M14.6594 9.55713C16.509 10.1833 20.7379 11.1717 25.9344 9.52175C26.5836 9.31598 26.9775 8.70636 26.8513 8.09329C26.5113 6.4429 25.2213 3.46136 20.3398 3.46136C15.4198 3.46136 14.119 6.48944 13.7756 8.13136C13.6486 8.7379 14.0221 9.34098 14.6594 9.55713Z" fill="#FF4E42"/>
<path fill-rule="evenodd" clip-rule="evenodd" d="M20.882 4.89256C20.882 5.17794 20.6274 5.4091 20.3131 5.4091C19.9985 5.4091 19.7435 5.17794 19.7435 4.89256C19.7435 4.60756 19.9985 4.3764 20.3131 4.3764C20.6274 4.3764 20.882 4.60756 20.882 4.89256ZM18.4807 5.92544C18.4807 6.21044 18.2261 6.44198 17.9119 6.44198C17.5973 6.44198 17.3423 6.21044 17.3423 5.92544C17.3423 5.64006 17.5973 5.4089 17.9119 5.4089C18.2261 5.4089 18.4807 5.64006 18.4807 5.92544ZM22.7143 6.44198C23.0286 6.44198 23.2832 6.21044 23.2832 5.92544C23.2832 5.64006 23.0286 5.4089 22.7143 5.4089C22.3997 5.4089 22.1447 5.64006 22.1447 5.92544C22.1447 6.21044 22.3997 6.44198 22.7143 6.44198Z" fill="#1820EF"/>
<path fill-rule="evenodd" clip-rule="evenodd" d="M20.7692 0.384615C20.7692 0.596827 20.5972 0.769231 20.3849 0.769231C20.1723 0.769231 20 0.596827 20 0.384615C20 0.172118 20.1723 0 20.3849 0C20.5972 0 20.7692 0.172118 20.7692 0.384615ZM23.0769 1.80231C23.0769 2.01452 22.9049 2.18692 22.6926 2.18692C22.48 2.18692 22.3077 2.01452 22.3077 1.80231C22.3077 1.58981 22.48 1.41769 22.6926 1.41769C22.9049 1.41769 23.0769 1.58981 23.0769 1.80231ZM18.0772 1.92308C18.2895 1.92308 18.4616 1.75067 18.4616 1.53846C18.4616 1.32596 18.2895 1.15385 18.0772 1.15385C17.8646 1.15385 17.6923 1.32596 17.6923 1.53846C17.6923 1.75067 17.8646 1.92308 18.0772 1.92308Z" fill="#FFC024"/>
</svg>
