<svg width="40" height="40" viewBox="0 0 40 40" fill="none" xmlns="http://www.w3.org/2000/svg">
<path fill-rule="evenodd" clip-rule="evenodd" d="M19.9763 3.43913L19.9771 3.43819C20.4472 2.86014 21.0316 2.14147 22.1816 2.14147C23.332 2.14147 23.9164 2.86014 24.3865 3.43829L24.3869 3.43871C24.8496 4.00904 25.1412 4.33179 25.7419 4.33179C26.3409 4.33179 26.6316 4.00945 27.0952 3.43913C27.5646 2.86091 28.149 2.14147 29.2988 2.14147C30.4482 2.14147 31.0322 2.86091 31.5012 3.43913C31.9635 4.00945 32.2547 4.33179 32.8533 4.33179C32.8544 4.33179 32.8553 4.33202 32.8563 4.33224C32.8571 4.33243 32.8579 4.33262 32.8587 4.33262V0.264343H18.6168V4.33304L18.6184 4.33253C18.6194 4.33216 18.6204 4.33179 18.6218 4.33179C19.222 4.33179 19.5136 4.00904 19.9763 3.43913ZM19.9771 9.64969L19.9763 9.65062C19.5136 10.2205 19.222 10.5433 18.6218 10.5433C18.6207 10.5433 18.6198 10.5436 18.619 10.544C18.6183 10.5443 18.6176 10.5445 18.6168 10.5445V5.42575C18.6176 5.42575 18.6183 5.42602 18.619 5.42632H18.619H18.619H18.619H18.619C18.6198 5.42665 18.6207 5.42699 18.6218 5.42699C19.7723 5.42699 20.3567 4.70768 20.8265 4.12949L20.8266 4.12933C21.2898 3.55942 21.581 3.23667 22.1816 3.23667C22.7823 3.23667 23.0735 3.55942 23.5366 4.12933L23.5367 4.12949C24.0065 4.70768 24.591 5.42699 25.7419 5.42699C26.8912 5.42699 27.4761 4.70755 27.9455 4.12933C28.4082 3.55942 28.6998 3.23667 29.2988 3.23667C29.8974 3.23667 30.1886 3.55901 30.6509 4.12933C31.1199 4.70755 31.7035 5.42699 32.8533 5.42699C32.8544 5.42699 32.8553 5.42665 32.8563 5.42632C32.8568 5.42613 32.8573 5.42594 32.8578 5.42584C32.8581 5.42578 32.8584 5.42575 32.8587 5.42575V10.5441L32.8574 10.544C32.8561 10.5437 32.8548 10.5433 32.8533 10.5433C32.2547 10.5433 31.9635 10.2209 31.5012 9.65062C31.0322 9.07241 30.4482 8.35296 29.2988 8.35296C28.149 8.35296 27.5646 9.07241 27.0952 9.65062C26.6316 10.2209 26.3409 10.5433 25.7419 10.5433C25.1412 10.5433 24.8496 10.2205 24.3869 9.65021L24.3856 9.64864C23.9156 9.07111 23.3312 8.35296 22.1816 8.35296C21.0316 8.35296 20.4472 9.07163 19.9771 9.64969ZM30.6509 10.3406C31.1199 10.9188 31.7035 11.6383 32.8533 11.6383C32.8544 11.6383 32.8553 11.638 32.8563 11.6378L32.857 11.6377L32.8587 11.6375V16.7558C32.858 16.7558 32.8573 16.7556 32.8565 16.7553L32.8563 16.7552C32.8553 16.7549 32.8544 16.7546 32.8533 16.7546C32.2547 16.7546 31.9635 16.4326 31.5012 15.8619C31.0322 15.2841 30.4482 14.5647 29.2988 14.5647C28.149 14.5647 27.5646 15.2841 27.0952 15.8619L27.0952 15.8619L27.0952 15.8619C26.6316 16.4326 26.3409 16.7546 25.7419 16.7546C25.1412 16.7546 24.8496 16.4322 24.3869 15.8619L24.3865 15.8615C23.9164 15.2833 23.332 14.5647 22.1816 14.5647C21.032 14.5647 20.4476 15.2828 19.9776 15.8603L19.9763 15.8619C19.5136 16.4322 19.222 16.7546 18.6218 16.7546C18.6207 16.7546 18.6198 16.7549 18.619 16.7552C18.6183 16.7555 18.6176 16.7558 18.6168 16.7558V11.6375C18.6176 11.6375 18.6183 11.6376 18.619 11.6378H18.619H18.619C18.6198 11.638 18.6207 11.6383 18.6218 11.6383C19.7724 11.6383 20.3568 10.9192 20.8266 10.341C21.2898 9.77071 21.581 9.44837 22.1816 9.44837C22.7823 9.44837 23.0735 9.77071 23.5366 10.341C24.0064 10.9192 24.5908 11.6383 25.7419 11.6383C26.8912 11.6383 27.4761 10.9188 27.9455 10.341C28.4082 9.77071 28.6998 9.44837 29.2988 9.44837C29.8974 9.44837 30.1886 9.77071 30.6509 10.3406ZM29.2989 15.6599C29.8975 15.6599 30.1887 15.9822 30.651 16.5521L30.6513 16.5525C31.1202 17.1306 31.7038 17.8502 32.8533 17.8502C32.8554 17.8502 32.8571 17.8489 32.8583 17.8489V20.7429H18.6165V17.8489C18.6175 17.8489 18.6183 17.8493 18.6192 17.8496C18.62 17.8499 18.6208 17.8502 18.6219 17.8502C19.7724 17.8502 20.3568 17.1309 20.8266 16.5527L20.8267 16.5525C21.2899 15.9822 21.5811 15.6599 22.1813 15.6599C22.7823 15.6599 23.0735 15.9822 23.5367 16.5525L23.5368 16.5527C24.0066 17.1309 24.591 17.8502 25.742 17.8502C26.891 17.8502 27.4754 17.1308 27.9447 16.5531L27.9452 16.5525C28.4083 15.9822 28.6999 15.6599 29.2989 15.6599Z" fill="#1820EF"/>
<path fill-rule="evenodd" clip-rule="evenodd" d="M14.4502 12.4857C14.3725 12.2664 14.2769 12.0529 14.1581 11.8502C13.6235 10.9392 12.6029 10.0229 10.6589 9.99964C9.24664 9.98302 8.31161 10.4491 7.69185 11.0481C6.6023 11.7596 6.55453 13.5204 6.55453 13.5204C6.55453 13.5204 6.55744 13.5213 6.55785 13.5213C6.53584 13.7742 6.53085 14.0285 6.55162 14.2827L8.52802 38.1461C8.60861 39.1189 9.34882 39.8666 10.2419 39.877C11.1317 39.8874 11.8872 39.1638 11.9952 38.198L14.6138 14.8048C14.7505 13.5823 14.4502 12.4857 14.4502 12.4857Z" fill="#FF4E42"/>
<path fill-rule="evenodd" clip-rule="evenodd" d="M9.58281 10.9477C9.58281 10.9477 6.08984 2.82979 8.0409 2.90789C9.99197 2.98598 10.0389 6.09596 10.0389 6.09596C10.0389 6.09596 8.93398 -0.570545 11.3112 0.0396552C13.6893 0.64944 11.4869 8.45285 11.4869 8.45285C11.4869 8.45285 12.67 4.37752 13.9186 5.12022C15.1668 5.86335 11.7665 10.8783 11.7665 10.8783C11.7665 10.8783 11.3461 11.9737 9.58281 10.9477Z" fill="#1820EF"/>
<path fill-rule="evenodd" clip-rule="evenodd" d="M10.0359 23.6343C10.2673 23.6277 10.4484 23.4353 10.4422 23.204C10.4355 22.9726 10.2432 22.7911 10.0114 22.7977C8.14924 22.8521 7.63333 22.5826 7.581 22.551C7.49335 22.4746 7.3812 22.4446 7.27112 22.4534L7.3463 23.3631C7.39989 23.3847 7.45721 23.4063 7.52616 23.4279C7.96107 23.5612 8.71915 23.6734 10.0359 23.6343Z" fill="#1820EF"/>
<path fill-rule="evenodd" clip-rule="evenodd" d="M10.2907 27.1282C10.522 27.1216 10.7031 26.9288 10.6973 26.6974C10.6898 26.4669 10.4975 26.2858 10.2661 26.2912C8.40273 26.346 7.88849 26.0769 7.83532 26.0449C7.75681 25.9763 7.65878 25.9427 7.56033 25.9427L7.63676 26.8698C7.68204 26.8873 7.72524 26.9047 7.78049 26.9213C8.21581 27.0551 8.97389 27.1672 10.2907 27.1282Z" fill="#1820EF"/>
<path fill-rule="evenodd" clip-rule="evenodd" d="M9.64486 20.308C9.87623 20.3014 10.0578 20.1086 10.0515 19.8777C10.0445 19.6467 9.85255 19.4652 9.62035 19.4714C7.75652 19.5263 7.24269 19.2567 7.18952 19.2247C7.13303 19.1753 7.06574 19.1504 6.99637 19.1362L7.07488 20.0796C7.09565 20.087 7.11185 20.0941 7.13469 20.1012C7.57001 20.2349 8.32768 20.3467 9.64486 20.308Z" fill="#1820EF"/>
<path fill-rule="evenodd" clip-rule="evenodd" d="M32.0379 26.5834H19.4368C18.9836 26.5834 18.6164 26.2162 18.6164 25.763V22.8744C18.6164 22.4208 18.9836 22.054 19.4368 22.054H32.0379C32.4915 22.054 32.8587 22.4208 32.8587 22.8744V25.763C32.8587 26.2162 32.4915 26.5834 32.0379 26.5834Z" fill="#FFC024"/>
<path fill-rule="evenodd" clip-rule="evenodd" d="M31.2161 23.8652H26.0051C25.8904 23.8652 25.7974 23.7721 25.7974 23.6575C25.7974 23.5428 25.8904 23.4498 26.0051 23.4498H31.2161C31.3307 23.4498 31.4238 23.5428 31.4238 23.6575C31.4238 23.7721 31.3307 23.8652 31.2161 23.8652Z" fill="#1820EF"/>
<path fill-rule="evenodd" clip-rule="evenodd" d="M27.7952 25.1198H20.2286C20.1139 25.1198 20.0209 25.0267 20.0209 24.9121C20.0209 24.7975 20.1139 24.7044 20.2286 24.7044H27.7952C27.9099 24.7044 28.0029 24.7975 28.0029 24.9121C28.0029 25.0267 27.9099 25.1198 27.7952 25.1198Z" fill="#1820EF"/>
<path fill-rule="evenodd" clip-rule="evenodd" d="M32.0379 32.4625H19.4368C18.9836 32.4625 18.6164 32.0949 18.6164 31.6417V28.7531C18.6164 28.2999 18.9836 27.9327 19.4368 27.9327H32.0379C32.4915 27.9327 32.8587 28.2999 32.8587 28.7531V31.6417C32.8587 32.0949 32.4915 32.4625 32.0379 32.4625Z" fill="#FFC024"/>
<path fill-rule="evenodd" clip-rule="evenodd" d="M25.2591 29.7438H20.0481C19.9334 29.7438 19.8404 29.6508 19.8404 29.5361C19.8404 29.4215 19.9334 29.3284 20.0481 29.3284H25.2591C25.3737 29.3284 25.4668 29.4215 25.4668 29.5361C25.4668 29.6508 25.3737 29.7438 25.2591 29.7438Z" fill="#1820EF"/>
<path fill-rule="evenodd" clip-rule="evenodd" d="M31.5787 30.9985H24.0121C23.8974 30.9985 23.8044 30.9054 23.8044 30.7908C23.8044 30.6761 23.8974 30.5831 24.0121 30.5831H31.5787C31.6934 30.5831 31.7864 30.6761 31.7864 30.7908C31.7864 30.9054 31.6934 30.9985 31.5787 30.9985Z" fill="#1820EF"/>
<path fill-rule="evenodd" clip-rule="evenodd" d="M20.6351 37.267C19.8467 37.267 19.2074 36.6282 19.2074 35.8393C19.2074 35.0514 19.8467 34.4125 20.6351 34.4125C21.4231 34.4125 22.0628 35.0514 22.0628 35.8393C22.0628 36.6282 21.4231 37.267 20.6351 37.267ZM20.6351 33.821C19.5202 33.821 18.6163 34.7249 18.6163 35.8393C18.6163 36.9546 19.5202 37.8585 20.6351 37.8585C21.75 37.8585 22.6535 36.9546 22.6535 35.8393C22.6535 34.7249 21.75 33.821 20.6351 33.821ZM25.7374 39.2855C24.9494 39.2855 24.3101 38.6466 24.3101 37.8582C24.3101 37.0698 24.9494 36.431 25.7374 36.431C26.5257 36.431 27.165 37.0698 27.165 37.8582C27.165 38.6466 26.5257 39.2855 25.7374 39.2855ZM25.7374 35.8395C24.6225 35.8395 23.719 36.7433 23.719 37.8582C23.719 38.9731 24.6225 39.877 25.7374 39.877C26.8527 39.877 27.7561 38.9731 27.7561 37.8582C27.7561 36.7433 26.8527 35.8395 25.7374 35.8395ZM29.4123 35.8393C29.4123 36.6282 30.0516 37.267 30.84 37.267C31.628 37.267 32.2673 36.6282 32.2673 35.8393C32.2673 35.0514 31.628 34.4125 30.84 34.4125C30.0516 34.4125 29.4123 35.0514 29.4123 35.8393ZM28.8213 35.8393C28.8213 34.7249 29.7247 33.821 30.84 33.821C31.9549 33.821 32.8584 34.7249 32.8584 35.8393C32.8584 36.9546 31.9549 37.8585 30.84 37.8585C29.7247 37.8585 28.8213 36.9546 28.8213 35.8393Z" fill="#1820EF"/>
</svg>
