<svg width="40" height="40" viewBox="0 0 40 40" fill="none" xmlns="http://www.w3.org/2000/svg">
<path fill-rule="evenodd" clip-rule="evenodd" d="M19.1899 13.5426C19.1899 13.5426 27.1808 22.7675 29.0487 27.2006C30.9174 31.6338 28.027 38.5414 22.2774 39.7757C16.5283 41.0103 11.3545 36.9782 10.2808 31.8659C9.207 26.7533 13.8591 14.3055 13.8591 14.3055L15.5674 15.4652L16.4149 13.7566L18.337 14.8704L19.1899 13.5426Z" fill="#FF4E42"/>
<path fill-rule="evenodd" clip-rule="evenodd" d="M15.7667 0C16.1521 0 16.5531 0.12009 16.9662 0.359856C17.7854 0.834815 18.2242 1.4282 18.2704 2.1234C18.3385 3.14811 17.4916 4.04609 17.0881 4.41259L18.837 12.5538C18.8849 12.7782 18.7399 12.9988 18.513 13.0466C18.2839 13.0948 18.0628 12.9506 18.0145 12.7263L16.2139 4.34486C16.1807 4.18987 16.2404 4.02905 16.3665 3.9314C16.6796 3.68831 17.4807 2.90004 17.4315 2.17617C17.4042 1.77351 17.1045 1.40327 16.5409 1.07624C16.116 0.830244 15.7499 0.769576 15.4204 0.895483C14.708 1.16475 14.3541 2.20858 14.3507 2.21939C14.2977 2.38228 14.1494 2.49655 13.9766 2.50777C13.7955 2.51774 13.6421 2.42341 13.5689 2.26842C13.521 2.17243 13.0381 1.30313 11.6124 1.60314C10.969 1.73861 10.7517 2.56013 10.8744 3.26446C11.0118 4.05357 11.604 4.91622 12.8313 4.75707C13.0436 4.7284 13.2516 4.8701 13.2974 5.08286L15.0719 13.3446C15.1199 13.569 14.9749 13.7896 14.7479 13.837C14.5171 13.8848 14.2977 13.741 14.2494 13.517L12.551 5.60851C12.5434 5.60893 12.5358 5.60893 12.5279 5.60893C11.082 5.60893 10.2444 4.54432 10.0464 3.40575C9.82364 2.12797 10.4217 1.00394 11.4376 0.790352C12.577 0.551834 13.3722 0.893406 13.851 1.30894C14.0994 0.876369 14.5104 0.349883 15.1199 0.119259C15.3296 0.0398916 15.5456 0 15.7667 0Z" fill="#1820EF"/>
<path fill-rule="evenodd" clip-rule="evenodd" d="M18.846 20C18.3337 20 18.3331 20.7692 18.846 20.7692C19.3588 20.7692 19.3593 20 18.846 20ZM14.6153 26.1538C14.1031 26.1538 14.1021 26.9231 14.6153 26.9231C15.128 26.9231 15.1285 26.1538 14.6153 26.1538ZM25.0001 26.9231C24.4874 26.9231 24.4869 27.6923 25.0001 27.6923C25.5123 27.6923 25.5133 26.9231 25.0001 26.9231ZM26.5384 29.6154C26.0262 29.6154 26.0252 30.3846 26.5384 30.3846C27.0511 30.3846 27.0516 29.6154 26.5384 29.6154ZM25.0001 33.0769C24.4874 33.0769 24.4869 33.8462 25.0001 33.8462C25.5123 33.8462 25.5133 33.0769 25.0001 33.0769Z" fill="#FFC024"/>
</svg>
