<svg width="40" height="40" viewBox="0 0 40 40" fill="none" xmlns="http://www.w3.org/2000/svg">
<path fill-rule="evenodd" clip-rule="evenodd" d="M25.2865 1.30944H26.8785C27.2004 1.30944 27.4619 1.07829 27.4619 0.792904V0.651365C27.4619 0.365981 27.2004 0.134827 26.8785 0.134827H11.7373C11.4145 0.134827 11.1539 0.365981 11.1539 0.651365V0.792904C11.1539 1.07829 11.4145 1.30944 11.7373 1.30944H14.6562L15.39 2.95376C15.39 2.95376 20.1018 4.09631 24.5527 2.95376L25.2865 1.30944Z" fill="#FFC024"/>
<path fill-rule="evenodd" clip-rule="evenodd" d="M8.54772 24.0488C8.84877 21.9938 9.36828 20.1072 9.99339 18.35C13.2262 19.0908 20.1191 20.071 29.87 18.295C30.5041 20.0678 31.0304 21.9724 31.3348 24.0488C32.2436 30.2492 31.6299 34.3025 31.2216 36.0732C28.8655 34.9603 24.4263 34.3859 20.0237 34.3859C15.5253 34.3859 10.9915 34.9857 8.67759 36.1468C8.26923 34.4118 7.62794 30.3268 8.54772 24.0488ZM8.89875 37.198C8.89875 37.198 8.87862 37.1429 8.8465 37.0393C10.5982 36.1351 14.5487 35.2885 20.0419 35.2885C25.431 35.2885 29.3352 36.1032 31.1353 36.988C30.5926 38.6618 25.8096 39.9706 19.9875 39.9706C14.4112 39.9706 9.78873 38.7699 8.93087 37.198H8.89875Z" fill="#FF4E42"/>
<path fill-rule="evenodd" clip-rule="evenodd" d="M29.6155 17.4785C27.6078 12.0997 24.7767 7.89776 24.1469 3.84619C19.4894 5.28094 15.4852 3.84619 15.4852 3.84619C14.8536 7.90933 12.0083 12.1241 10.0001 17.5247C13.2372 18.2563 20.0985 19.2263 29.6155 17.4785Z" fill="#FAFAED"/>
<path fill-rule="evenodd" clip-rule="evenodd" d="M29.5867 27.3077C29.3719 27.3077 29.1905 27.1439 29.1752 26.9296C28.3101 15.0529 23.5865 8.40257 23.5385 8.33656C23.4059 8.1532 23.4493 7.89893 23.6348 7.76813C23.8203 7.63733 24.0789 7.68012 24.2107 7.86307C24.4111 8.13934 29.1178 14.7677 29.999 26.8709C30.0155 27.0954 29.8441 27.2906 29.6164 27.3069C29.6065 27.3073 29.5966 27.3077 29.5867 27.3077Z" fill="#FAFAED"/>
</svg>
