<svg width="40" height="40" viewBox="0 0 40 40" fill="none" xmlns="http://www.w3.org/2000/svg">
<path fill-rule="evenodd" clip-rule="evenodd" d="M19.5745 13.5426C19.5745 13.5426 27.5654 22.7675 29.4333 27.2006C31.302 31.6338 28.4116 38.5414 22.662 39.7757C16.9129 41.0103 11.7391 36.9782 10.6654 31.8659C9.5916 26.7533 14.2437 14.3055 14.2437 14.3055L15.952 15.4652L16.7995 13.7566L18.7216 14.8704L19.5745 13.5426Z" fill="#FFC024"/>
<path fill-rule="evenodd" clip-rule="evenodd" d="M16.1513 0C16.5367 0 16.9377 0.12009 17.3509 0.359856C18.17 0.834815 18.6088 1.4282 18.655 2.1234C18.7231 3.14811 17.8762 4.04609 17.4727 4.41259L19.2216 12.5538C19.2695 12.7782 19.1245 12.9988 18.8976 13.0466C18.6685 13.0948 18.4474 12.9506 18.3991 12.7263L16.5985 4.34486C16.5653 4.18987 16.625 4.02905 16.7511 3.9314C17.0642 3.68831 17.8653 2.90004 17.8161 2.17617C17.7888 1.77351 17.4891 1.40327 16.9255 1.07624C16.5006 0.830244 16.1345 0.769576 15.805 0.895483C15.0926 1.16475 14.7387 2.20858 14.7353 2.21939C14.6824 2.38228 14.534 2.49655 14.3613 2.50777C14.1801 2.51774 14.0267 2.42341 13.9536 2.26842C13.9056 2.17243 13.4227 1.30313 11.9971 1.60314C11.3536 1.73861 11.1363 2.56013 11.259 3.26446C11.3964 4.05357 11.9886 4.91622 13.2159 4.75707C13.4282 4.7284 13.6362 4.8701 13.682 5.08286L15.4566 13.3446C15.5045 13.569 15.3595 13.7896 15.1325 13.837C14.9018 13.8848 14.6824 13.741 14.634 13.517L12.9356 5.60851C12.928 5.60893 12.9205 5.60893 12.9125 5.60893C11.4666 5.60893 10.629 4.54432 10.431 3.40575C10.2083 2.12797 10.8063 1.00394 11.8222 0.790352C12.9616 0.551834 13.7569 0.893406 14.2356 1.30894C14.484 0.876369 14.895 0.349883 15.5045 0.119259C15.7142 0.0398916 15.9302 0 16.1513 0Z" fill="#FAFAED"/>
<path fill-rule="evenodd" clip-rule="evenodd" d="M19.2306 20C18.7183 20 18.7178 20.7692 19.2306 20.7692C19.7434 20.7692 19.7439 20 19.2306 20ZM14.9999 26.1538C14.4877 26.1538 14.4867 26.9231 14.9999 26.9231C15.5126 26.9231 15.5131 26.1538 14.9999 26.1538ZM25.3847 26.9231C24.872 26.9231 24.8715 27.6923 25.3847 27.6923C25.8969 27.6923 25.8979 26.9231 25.3847 26.9231ZM26.923 29.6154C26.4108 29.6154 26.4098 30.3846 26.923 30.3846C27.4357 30.3846 27.4362 29.6154 26.923 29.6154ZM25.3847 33.0769C24.872 33.0769 24.8715 33.8462 25.3847 33.8462C25.8969 33.8462 25.8979 33.0769 25.3847 33.0769Z" fill="#FF4E42"/>
</svg>
