<svg width="40" height="40" viewBox="0 0 40 40" fill="none" xmlns="http://www.w3.org/2000/svg">
<path fill-rule="evenodd" clip-rule="evenodd" d="M39.4682 17.505C39.4682 13.818 30.5279 10.7031 19.9452 10.7031C9.36241 10.7031 0.422089 13.818 0.422089 17.505C0.422089 18.1272 0.682119 18.732 1.15607 19.3094C3.49095 16.4649 11.1481 14.3119 19.9452 14.3119C28.7426 14.3119 36.3994 16.4649 38.7347 19.3094C39.2086 18.732 39.4682 18.1272 39.4682 17.505Z" fill="#FF4E42"/>
<path fill-rule="evenodd" clip-rule="evenodd" d="M19.9452 14.3117C11.1481 14.3117 3.49094 16.4651 1.15607 19.3092C3.49094 22.1538 11.1481 24.3071 19.9452 24.3071C28.7426 24.3071 36.3994 22.1538 38.7347 19.3092C36.3994 16.4651 28.7426 14.3117 19.9452 14.3117Z" fill="#FFC024"/>
<path fill-rule="evenodd" clip-rule="evenodd" d="M19.9454 25.1378C29.9288 25.1378 38.0192 22.5728 39.8909 19.0657C39.7352 23.0031 38.1779 33.2428 26.3781 35.9789H13.5128C1.71211 33.2428 0.155659 23.0015 0.000305176 19.0649C1.87037 22.5724 9.96165 25.1378 19.9454 25.1378ZM24.9374 38.2503H14.9532C14.1578 38.2503 13.5127 37.6052 13.5127 36.8097H26.378C26.378 37.6052 25.7329 38.2503 24.9374 38.2503Z" fill="#1820EF"/>
<path fill-rule="evenodd" clip-rule="evenodd" d="M13.5209 13.5809C13.2912 13.5809 13.1055 13.3949 13.1055 13.1656C13.1055 12.2937 13.6513 11.8505 14.09 11.4949C14.5224 11.1439 14.7671 10.9233 14.7671 10.4693C14.7671 10.0145 14.5224 9.79347 14.0896 9.44247C13.6509 9.08607 13.1055 8.64286 13.1055 7.77055C13.1055 6.89783 13.6509 6.4542 14.0896 6.0978C14.5224 5.74638 14.7671 5.52498 14.7671 5.06972C14.7671 4.61487 14.5224 4.39347 14.0896 4.04206C13.6509 3.68566 13.1055 3.24203 13.1055 2.3693C13.1055 2.14001 13.2912 1.95392 13.5209 1.95392C13.7506 1.95392 13.9363 2.14001 13.9363 2.3693C13.9363 2.82456 14.181 3.04555 14.6138 3.39738C15.0524 3.75378 15.5978 4.197 15.5978 5.06972C15.5978 5.94286 15.0524 6.38607 14.6138 6.74247C14.181 7.0943 13.9363 7.31529 13.9363 7.77055C13.9363 8.22498 14.181 8.44596 14.6138 8.79738C15.0524 9.15336 15.5978 9.59658 15.5978 10.4693C15.5978 11.341 15.0522 11.7838 14.6136 12.1398L14.6134 12.14C14.181 12.4906 13.9363 12.7115 13.9363 13.1656C13.9363 13.3949 13.7506 13.5809 13.5209 13.5809ZM19.1144 13.5809C18.8847 13.5809 18.699 13.3949 18.699 13.1656C18.699 12.2937 19.2448 11.8505 19.6835 11.4949C20.1159 11.1439 20.3606 10.9233 20.3606 10.4693C20.3606 10.0145 20.1159 9.79347 19.6831 9.44247C19.2444 9.08607 18.699 8.64286 18.699 7.77055C18.699 6.89783 19.2444 6.4542 19.6831 6.0978C20.1159 5.74638 20.3606 5.52498 20.3606 5.06972C20.3606 4.61487 20.1159 4.39347 19.6831 4.04206C19.2444 3.68566 18.699 3.24203 18.699 2.3693C18.699 2.14001 18.8847 1.95392 19.1144 1.95392C19.3441 1.95392 19.5298 2.14001 19.5298 2.3693C19.5298 2.82456 19.7744 3.04555 20.2073 3.39738C20.6459 3.75378 21.1913 4.197 21.1913 5.06972C21.1913 5.94286 20.6459 6.38607 20.2073 6.74247C19.7744 7.0943 19.5298 7.31529 19.5298 7.77055C19.5298 8.22498 19.7744 8.44596 20.2073 8.79738C20.6459 9.15336 21.1913 9.59658 21.1913 10.4693C21.1913 11.341 20.6457 11.7838 20.2071 12.1398L20.2069 12.14C19.7744 12.4906 19.5298 12.7115 19.5298 13.1656C19.5298 13.3949 19.3441 13.5809 19.1144 13.5809ZM24.2929 13.1656C24.2929 13.3949 24.4786 13.5809 24.7083 13.5809C24.938 13.5809 25.1237 13.3949 25.1237 13.1656C25.1237 12.7115 25.3683 12.4906 25.8008 12.14L25.801 12.1398C26.2396 11.7838 26.7852 11.341 26.7852 10.4693C26.7852 9.59658 26.2398 9.15336 25.8012 8.79738C25.3683 8.44596 25.1237 8.22498 25.1237 7.77055C25.1237 7.31529 25.3683 7.0943 25.8012 6.74247C26.2398 6.38607 26.7852 5.94286 26.7852 5.06972C26.7852 4.197 26.2398 3.75378 25.8012 3.39738C25.3683 3.04555 25.1237 2.82456 25.1237 2.3693C25.1237 2.14001 24.938 1.95392 24.7083 1.95392C24.4786 1.95392 24.2929 2.14001 24.2929 2.3693C24.2929 3.24203 24.8383 3.68566 25.277 4.04206C25.7098 4.39347 25.9545 4.61487 25.9545 5.06972C25.9545 5.52498 25.7098 5.74638 25.277 6.0978C24.8383 6.4542 24.2929 6.89783 24.2929 7.77055C24.2929 8.64286 24.8383 9.08607 25.277 9.44247C25.7098 9.79347 25.9545 10.0145 25.9545 10.4693C25.9545 10.9233 25.7098 11.1439 25.2774 11.4949C24.8387 11.8505 24.2929 12.2937 24.2929 13.1656Z" fill="#1820EF"/>
</svg>
